<?xml version="1.0" encoding="utf-8"?>
<!-- Generator: Adobe Illustrator 26.0.3, SVG Export Plug-In . SVG Version: 6.00 Build 0)  -->
<svg version="1.0" id="katman_1" xmlns="http://www.w3.org/2000/svg" xmlns:xlink="http://www.w3.org/1999/xlink" x="0px" y="0px"
	 viewBox="0 0 800 600" style="enable-background:new 0 0 800 600;" xml:space="preserve">
<style type="text/css">
	.st0{fill:none;}
	.st1{fill:#38A6FB;}
</style>
<rect x="168.4" y="68.2" class="st0" width="462.8" height="462.8"/>
<path class="st1" d="M443.8,474.3H286.5c-20.4,0-37-16.6-37-37V168.9c0-20.4,16.6-37,37-37h222.1c20.4,0,37,16.6,37,37v92.6
	c0,5.1,4.1,9.3,9.3,9.3c5.1,0,9.3-4.1,9.3-9.3v-92.6c-0.1-30.6-24.9-55.4-55.5-55.5H286.5c-30.6,0.1-55.4,24.9-55.5,55.5v268.4
	c0.1,30.6,24.9,55.4,55.5,55.5h157.3c5.1,0,9.3-4.1,9.3-9.3C453,478.4,448.9,474.3,443.8,474.3z"/>
<path class="st1" d="M406.8,303.1c0-5.1-4.1-9.3-9.3-9.3h-83.3c-5.1,0-9.3,4.1-9.3,9.3c0,5.1,4.1,9.3,9.3,9.3h83.3
	C402.6,312.3,406.8,308.2,406.8,303.1z"/>
<path class="st1" d="M314.2,344.7c-5.1,0-9.3,4.1-9.3,9.3c0,5.1,4.1,9.3,9.3,9.3h74c5.1,0,9.3-4.1,9.3-9.3c0-5.1-4.1-9.3-9.3-9.3
	H314.2z"/>
<path class="st1" d="M591.9,356.3c0-42.2-34.2-76.3-76.4-76.3c-42.2,0-76.3,34.2-76.3,76.4c0,28.3,15.7,54.3,40.7,67.5l-8.3,58.3
	v2.3c0,0.3,0,0.7,0.2,0.9c0,0.2,0.2,0.7,0.2,0.9s0.2,0.5,0.2,0.7s0.2,0.7,0.5,0.9s0.2,0.2,0.2,0.5s0.2,0.2,0.2,0.5l0.2,0.2
	c0.2,0.5,0.7,0.7,1.2,1.2l0.2,0.2c0.5,0.2,0.7,0.7,1.2,0.9l0.2,0.2l1.4,0.7h0.2c0.5,0.2,0.9,0.2,1.4,0.5h1.4c0.5,0,1,0,1.4-0.2h0.5
	c0.2,0,0.7-0.2,0.9-0.2s0.2,0,0.5-0.2s0.7-0.2,0.9-0.5c0.2-0.2,0.2-0.2,0.5-0.2l0,0l32.2-20.1l32.2,20.1l0,0c0.2,0,0.2,0.2,0.5,0.2
	c0.2,0,0.7,0.2,0.9,0.5c0.2,0.2,0.2,0.2,0.5,0.2s0.7,0.2,0.9,0.2h0.5c0.5,0,0.9,0.2,1.4,0.2h1.4c0.5,0,1-0.2,1.4-0.5h0.2l1.4-0.7
	l0.2-0.2c0.4-0.2,0.8-0.5,1.2-0.9l0.2-0.2l1.2-1.2l0.2-0.2c0-0.2,0.2-0.2,0.2-0.5s0.2-0.2,0.2-0.5s0.2-0.7,0.5-0.9s0.2-0.5,0.2-0.7
	s0.2-0.7,0.2-0.9c0-0.3,0-0.7,0.2-0.9v-2.3l-8.8-60.9C577.6,407.9,591.9,383.1,591.9,356.3z M542.8,465l-20.1-12.5
	c-0.2,0-0.2-0.2-0.5-0.2c-0.2,0-0.7-0.2-0.9-0.5s-0.5-0.2-0.9-0.2c-0.5,0-0.5-0.2-0.9-0.2c-0.3,0-0.7,0-0.9-0.2h-1.9
	c-0.3,0-0.7,0-0.9,0.2c-0.2,0-0.7,0.2-0.9,0.2c-0.2,0-0.5,0.2-0.9,0.2s-0.7,0.2-0.9,0.5c-0.2,0-0.3,0.1-0.5,0.2L492.4,465l4.9-34.7
	c5.8,1.4,11.8,2.1,17.8,2.1c7.5,0,15-1.1,22.2-3.2L542.8,465z M515.5,414.1c-31.9,0-57.8-25.9-57.8-57.8s25.9-57.8,57.8-57.8
	c31.9,0,57.8,25.9,57.8,57.8l0,0C573.4,388.2,547.5,414.1,515.5,414.1z"/>
<path class="st1" d="M320.7,245v-40.7l25.2,44.2c1.7,2.5,4.4,3.9,7.4,3.9c4.2,0.3,7.8-2.9,8.1-7.2c0-0.1,0-0.2,0-0.2v-64.6
	c-0.1-4-3.4-7.3-7.4-7.2c-0.1,0-0.1,0-0.2,0c-4.1-0.1-7.5,3.1-7.6,7.2v41.2c-9.9-17.6-15.5-27.5-25.2-44.4c-1.7-2.4-4.4-3.9-7.4-3.9
	c-4.1-0.2-7.6,2.9-7.9,7c0,0.1,0,0.3,0,0.4V245c0.1,4,3.4,7.3,7.4,7.2c0.1,0,0.1,0,0.2,0C317.3,252.2,320.6,249,320.7,245z"/>
<path class="st1" d="M423,188.1c3.9,0.3,7.3-2.6,7.6-6.5c0-0.1,0-0.1,0-0.2c-0.2-4.1-3.6-7.3-7.6-7.2h-29.6c-4.4-0.1-8,3.3-8.3,7.6
	v63.4c0.5,4.2,4.3,7.3,8.5,6.8c3.6-0.4,6.4-3.2,6.8-6.8v-25.7h20.6c4,0.2,7.4-2.9,7.6-6.9c0,0,0,0,0,0c-0.3-4-3.6-7.1-7.6-6.9h-20.6
	v-17.6H423z"/>
<path class="st1" d="M472.2,252.2c4,0.1,7.4-2.9,7.6-6.9v-57.2h11.6c4,0.1,7.4-2.9,7.6-6.9c-0.3-4-3.7-7-7.6-6.9H453
	c-3.9,0.1-7.1,3.1-7.6,6.9c0.2,4,3.6,7.1,7.6,6.9c0,0,0,0,0,0h11.6v57.2C464.9,249.2,468.2,252.3,472.2,252.2z"/>
</svg>
